<svg class="mx-3" version="1.1" id="Layer_1" width="2.5em" height="2.5em" xmlns="http://www.w3.org/2000/svg"
                x="0" y="0" viewBox="0 0 500 500" style="enable-background:new 0 0 500 500" xml:space="preserve">
                <style>
                    .st0 {
                        fill: #aab1ba
                    }

                    .st2 {
                        fill: #ecf4f7
                    }
                </style>
                <path
                    d="M434.58 60.695H65.42c-17.99 0-32.573 14.583-32.573 32.573v369.159C32.847 480.417 47.43 495 65.42 495h369.16c17.99 0 32.573-14.583 32.573-32.573V93.268c-.001-17.989-14.584-32.573-32.573-32.573z"
                    style="fill:#f80000" />
                <path class="st2"
                    d="M198.507 215.273v125.15c0 7.429 8.208 11.924 14.468 7.924l97.91-62.575c5.786-3.698 5.786-12.149 0-15.847l-97.91-62.575c-6.26-4.001-14.468.494-14.468 7.923z" />
                <path class="st0"
                    d="M65.42 495h369.159c17.99 0 32.573-14.583 32.573-32.573v-27.023H32.848v27.023c0 17.99 14.583 32.573 32.572 32.573zM434.58 60.695H65.42c-17.99 0-32.573 14.583-32.573 32.573v27.023h434.305V93.268c0-17.989-14.583-32.573-32.572-32.573z" />
                <circle class="st2" cx="354.083" cy="464.123" r="12.959" />
                <path
                    d="M57.894 440.404h-5.462a5 5 0 1 1 0-10h5.462a5 5 0 1 1 0 10zm138.193-418.87h6.535v6.535a5 5 0 1 0 10 0v-6.535h6.535a5 5 0 1 0 0-10h-6.535V5a5 5 0 1 0-10 0v6.534h-6.535a5 5 0 1 0 0 10zm84.837 0h6.535v6.535a5 5 0 1 0 10 0v-6.535h6.534a5 5 0 1 0 0-10h-6.534V5a5 5 0 1 0-10 0v6.534h-6.535a5 5 0 1 0 0 10zm191.228 71.734v369.159c0 20.718-16.855 37.573-37.573 37.573H65.42c-20.718 0-37.573-16.855-37.573-37.573V93.268c0-20.718 16.855-37.572 37.573-37.572h369.16c20.717-.001 37.572 16.854 37.572 37.572zm-10 369.159v-22.022H76.133a5 5 0 1 1 0-10h386.02V93.268c0-15.203-12.369-27.572-27.573-27.572H65.42c-15.204 0-27.573 12.369-27.573 27.572v22.023h386.019a5 5 0 1 1 0 10H37.848v337.136C37.848 477.631 50.217 490 65.42 490h369.16c15.203 0 27.572-12.369 27.572-27.573zM68.88 90.493a5 5 0 0 0 5 5h9.309v-10H73.88a5 5 0 0 0-5 5zm31.37 0a5 5 0 0 0 5 5h9.309v-10h-9.309a5 5 0 0 0-5 5zm31.369 0a5 5 0 0 0 5 5h9.309v-10h-9.309a5 5 0 0 0-5 5zm310.487 34.798h5.461a5 5 0 1 0 0-10h-5.461a5 5 0 1 0 0 10zM193.507 340.423v-125.15c0-5.344 2.798-10.066 7.484-12.633 4.687-2.568 10.173-2.383 14.676.496l97.911 62.575c4.163 2.66 6.647 7.197 6.647 12.137s-2.485 9.477-6.647 12.137l-97.911 62.574c-2.392 1.529-5.063 2.299-7.743 2.299-2.364 0-4.736-.599-6.933-1.802-4.686-2.567-7.484-7.289-7.484-12.633zm10 0c0 2.354 1.6 3.485 2.288 3.862.688.378 2.502 1.115 4.487-.152l97.911-62.574c1.834-1.173 2.032-2.985 2.032-3.711s-.198-2.538-2.033-3.711l-97.91-62.575c-.833-.532-1.637-.711-2.339-.711a4.55 4.55 0 0 0-2.148.56c-.688.377-2.288 1.508-2.288 3.862v125.15zm-82.372 110.075a5 5 0 0 0-5 5v3.625H62.553a5 5 0 1 0 0 10h53.583v3.625a5 5 0 1 0 10 0v-17.25a5.001 5.001 0 0 0-5.001-5zm315.023 13.625a5 5 0 0 1-5 5h-59.839c-2.172 7.475-9.07 12.959-17.236 12.959-8.167 0-15.064-5.484-17.236-12.959H146.563v3.625a5 5 0 1 1-10 0v-17.25a5 5 0 1 1 10 0v3.625h190.284c2.172-7.475 9.07-12.959 17.236-12.959s15.064 5.484 17.236 12.959h59.839a5 5 0 0 1 5 5zm-74.116 0c0-4.389-3.57-7.959-7.958-7.959-4.389 0-7.959 3.57-7.959 7.959s3.57 7.959 7.959 7.959c4.387 0 7.958-3.57 7.958-7.959z"
                    style="fill:#1c1d21" />
            </svg>